<svg width="63" height="63" fill="none" xmlns="http://www.w3.org/2000/svg"><path fill-rule="evenodd" clip-rule="evenodd" d="M59.178 21.754l1.727 20.943C56.395 54.567 44.919 63 31.475 63 14.093 63 0 48.896 0 31.5S14.093 0 31.475 0A31.311 31.311 0 0 1 48.57 5.046l10.608 16.708z" fill="#008DB3"/><path fill-rule="evenodd" clip-rule="evenodd" d="M48.567 5.042c.363 1.005.647 2.247-.461 1.666-1.763-.925-4.115-2.035-3.358-1.312.756.723 1.049 1.609-.146 1.462-1.2-.15-3.298-.402-4.218.942-.924 1.346-2.182 1.093-2.518 1.598-.336.502-.84 2.689-1.765 2.017-.922-.673-2.855-3.048-1.258-2.365 1.595.682 3.359-.073 1.93-1.754-1.427-1.682-2.938-1.093-3.526-2.017-.588-.925-2.77-2.1-4.282.252-1.512 2.352-2.88 5.38-3.707 6.01-.828.63-2.59 1.807-2.34 2.73.252.926.336 3.195 1.26 2.522.925-.673 1.512-.924 1.849-.336.336.589.252 1.933.924 1.849 0 0 1.51-1.092 1.595-2.017.084-.924-1.092-1.512-.168-2.857.925-1.345 2.69-3.958 2.269-2.65-.42 1.305-1.344 3.15-.673 3.995.671.845 4.283-.252 2.602.589-1.679.84-2.518 1.428-2.855 2.52-.336 1.093-.588 1.934-1.428 1.513-.84-.421-1.846-.252-2.35-.252s-.672-1.933-1.344-1.512c-.672.419.252 1.816-.503 1.874-.757.059-.84.898-1.68 1.57-.84.674-2.016 1.85-2.772 2.018-.757.168 1.176 1.009.84 1.933-.336.925-2.014.841-2.602.925-.587.084-.084 1.344-.42 2.1-.335.756.336 1.512 1.343 1.512 1.008 0 2.098-.252 2.184-1.177.084-.924 1.092-2.52 1.765-2.185.67.336 2.158-.588 2.506-.083.348.503 2.279 2.268 2.109 2.52-.17.252-1.174.757-.754.925 0 0 .266.53.546.417.28-.113.757-1.485 1.008-1.653.252-.168.336-.897-.141-1.233-.476-.336-2.266-1.597-1.875-2.185.391-.588 1.4.728 1.79 1.176.394.45 1.01.925 1.037 1.905.029.98.59.925.673 1.4.084.478.28.677.84.605.56-.072.783-1.305.476-1.612-.308-.309-.308-.982.279-.982.588 0 1.315-.503 1.344-.812.028-.307.588-2.212 1.008-2.212.42 0 .699.756.867 1.149.168.391 1.231-.309 1.064-.7-.168-.393.083-.533.393-.533.307 0 .056.812.363 1.065.31.252 1.735 1.177 1.26 1.652-.475.476-1.26.197-1.79-.224-.534-.42-1.904-.168-2.27.252-.362.42-.672.616-1.287.644-.617.028-.533 1.15 0 1.625.531.477 1.26.056 1.791.392.533.337 1.372-.448 1.512.085.14.532-.084 2.128-.617 2.184-.53.056-2.186.449-3.403-.112-1.215-.56-2.39-.783-2.503-.196-.112.589-.14 1.016-.98.494-.84-.521-1.567-.83-2.098-.83-.53 0-.559-.897-.447-1.681.11-.785-1.29-.504-2.098-.308-.811.197-2.518.785-3.526.785-1.009 0-1.512.223-1.681.672-.17.448-1.148.448-1.176 1.289-.027.84.141 1.084-.755 1.438-.896.355-1.176 1.98-1.625 2.428-.447.45.45 1.513 0 2.074-.447.56-.873 2.017-.129 2.353.746.336 1.473 1.736 1.81 2.297.336.56 1.455 1.01 2.576.841 1.118-.168 3.302-.84 4.366-.336 1.064.505 2.35.393 1.736 1.458-.617 1.064.279 2.41 1.064 3.194.782.784.503 2.576.11 3.193-.392.616-.28 1.68.112 2.242.391.56.672 1.736.672 2.241 0 .503.84 1.457.951 2.466.112 1.008-.615 2.185.336 2.185.952 0 3.36.111 3.528-.336.168-.448 2.127-2.074 2.632-2.858.504-.785 1.623-2.018 1.287-2.745-.336-.729.055-1.345 1.12-1.737 1.064-.392 1.007-3.362.503-4.146-.503-.785.449-2.521 1.625-3.082 1.174-.56 3.918-5.322 3.023-4.93-.896.392-2.744.728-3.359.335-.617-.391-4.256-6.76-3.752-7.133.505-.374 3.47 5.73 3.976 6.517.506.788 5.487-2.24 6.047-2.97.56-.727-.335-1.511-.672-1.511s-1.455-.785-1.736-.337c-.28.449-2.463-3.026-1.68-2.69.785.336 2.352 1.401 3.752 2.185 1.4.785 3.135-.56 4.143 1.01 1.006 1.568 1.678.503 1.623 1.289-.056.785 1.287 3.754 1.735 4.706.447.951 1.4-.393 1.512-1.513.11-1.12 2.35-2.913 3.133-3.53.785-.615 2.24.281 2.465 1.57.224 1.288 1.288-.225 1.288.784 0 1.008-.183 2.45.524 3.662a31.518 31.518 0 0 0 2.044-11.2c0-11.092-5.73-20.847-14.387-26.46M15.1 9.061c-.588.163-1.257.924-2.098.504-.84-.42-2.602.167-1.511 1.177 1.092 1.008.662 1.68 1.633 1.764.972.085 1.726-1.344 2.398-1.26.671.085.273-2.377-.421-2.185z" fill="#FFC942"/><path fill-rule="evenodd" clip-rule="evenodd" d="M40.619 50.127c-.713.079-.561 1.569-1.344 1.737-.785.168-.116.84-.477 1.4-.363.56-.535 1.737 0 2.466.533.727.758.784 1.317-.392.56-1.177 2.014-5.379.504-5.211zM19.567 16.034c-.3-.02-.617.196-.952.252-.334.056-.531.475-.56.952-.026.476.84.673.504.98-.336.31-1.988.617-1.735 1.12.252.505.559.982.223 1.513-.334.532.336.589.924.393.589-.197 1.009-.925.953-1.401-.058-.477.896-.59.643-.252-.253.337-.81 1.468-.533 1.756.281.288-.866.82-.447 1.018.42.196 1.523-.841 2.21-.673.69.168.867-.168.951-.757.084-.588-.866-1.4-1.202-2.073-.335-.672-.054-2.773-.979-2.828z" fill="#FFC942"/></svg>