<svg width="64" height="64" viewBox="0 0 64 64" fill="none" xmlns="http://www.w3.org/2000/svg">
<mask id="mask0" mask-type="alpha" maskUnits="userSpaceOnUse" x="0" y="0" width="64" height="64">
<path fill-rule="evenodd" clip-rule="evenodd" d="M0 0H64V64H0V0Z" fill="white"/>
</mask>
<g mask="url(#mask0)">
<path fill-rule="evenodd" clip-rule="evenodd" d="M0 64H64V0H0V64Z" fill="white"/>
<path fill-rule="evenodd" clip-rule="evenodd" d="M58.666 5.33398H53.1L37.34 25.494L27.689 14.304L0 54.454V63.994H6.381L28.633 31.724L37.75 42.295L58.666 15.529V5.33398Z" fill="#52C18E"/>
<path fill-rule="evenodd" clip-rule="evenodd" d="M64 0H0V50.705L2.969 46.4H2.133V33.067H12.163L13.634 30.933H2.134V17.601H15.468V28.273L17.601 25.179V17.601H22.827L24.298 15.468H17.601V2.134H30.934V14.8L33.351 17.6H40.807L42.474 15.467H33.068V2.134H46.401V10.444L48.535 7.714V2.134H61.868V15.467H60.801V16.268L59.761 17.601H61.867V30.934H49.34L46.401 34.695V46.4H33.067V40.134L30.933 37.661V46.4H21.109L19.638 48.533H30.933V61.867H17.601V51.486L15.468 54.58V61.867H10.448L8.977 64H64.007V0M15.474 15.467H2.14V2.134H15.474V15.467ZM46.406 61.867H33.073V48.533H46.406V61.867ZM61.873 61.867H48.54V48.533H61.873V61.867ZM61.873 46.4H48.54V33.067H61.873V46.4Z" fill="#D0D5D8"/>
</g>
</svg>
