<svg width="64" height="48" fill="none" xmlns="http://www.w3.org/2000/svg"><path fill-rule="evenodd" clip-rule="evenodd" d="M0 47.5h64v-9H0v9z" fill="#699635"/><path fill-rule="evenodd" clip-rule="evenodd" d="M0 38.499h64v-38H0v38z" fill="#83BF4F"/><path fill-rule="evenodd" clip-rule="evenodd" d="M24 47.5h16v-9H24v9z" fill="#94989B"/><path fill-rule="evenodd" clip-rule="evenodd" d="M4 34.499h56v-30H4v30z" fill="#699635"/><path fill-rule="evenodd" clip-rule="evenodd" d="M7 31.499h50v-24H7v24z" fill="#83BF4F"/><path fill-rule="evenodd" clip-rule="evenodd" d="M53 19.5a8 8 0 1 1-16 0 8 8 0 0 1 16 0z" fill="#699635"/><path fill-rule="evenodd" clip-rule="evenodd" d="M24 38.499h16v-38H24v38z" fill="#D0D0D0"/><path fill-rule="evenodd" clip-rule="evenodd" d="M16 18.5c-1.103 0-2-.897-2-2s.897-2 2-2 2 .896 2 2h2c0-1.858-1.279-3.41-3-3.857V11.5h-2v1.143c-1.721.447-3 1.999-3 3.857 0 2.206 1.794 4 4 4 1.103 0 2 .896 2 2s-.897 2-2 2-2-.896-2-2h-2c0 1.858 1.279 3.41 3 3.857V27.5h2v-1.143c1.721-.447 3-1.999 3-3.857 0-2.205-1.794-4-4-4z" fill="#fff"/></svg>