<svg width="63" height="63" fill="none" xmlns="http://www.w3.org/2000/svg"><path fill-rule="evenodd" clip-rule="evenodd" d="M62.95 31.525C62.95 48.906 51.656 63 31.476 63 14.091 63 0 48.905 0 31.525 0 14.14 14.091.049 31.475.049c17.383 0 31.476 14.092 31.476 31.476z" fill="#FFDD67"/><path fill-rule="evenodd" clip-rule="evenodd" d="M26.045 20.28c-.224-.423-.72-.584-1.111-.365l-2.099 1.22.701-5.22a.956.956 0 0 0-.103-.566l-.668-1.266a.882.882 0 0 0-.494-.426.732.732 0 0 0-.617.064l-5.184 3.006a.812.812 0 0 0-.377.512.972.972 0 0 0 .084.668l.705 1.333c.226.426.72.586 1.11.365l1.958-1.135-.692 5.12a.966.966 0 0 0 .102.568l.704 1.33c.19.36.573.534.924.441a.745.745 0 0 0 .184-.077l5.288-3.058a.829.829 0 0 0 .377-.514.93.93 0 0 0-.082-.666l-.703-1.334M40.393 6.418a.841.841 0 0 0-.512-.39l-8.257-2.076c-.436-.11-.864.176-.954.641l-.398 2.043a.911.911 0 0 0 .114.65.841.841 0 0 0 .515.389l3.791.954-5.74 4.965a.844.844 0 0 0-.273.475l-.397 2.043a.932.932 0 0 0 .118.654.837.837 0 0 0 .512.385l8.415 2.12a.764.764 0 0 0 .608-.107.822.822 0 0 0 .346-.537l.396-2.038c.09-.463-.193-.931-.63-1.041l-4.02-1.01 5.837-5.058a.825.825 0 0 0 .27-.477l.379-1.933a.912.912 0 0 0-.115-.65M55.582 21.47a.8.8 0 0 0 .45-.409l1.21-2.582a.795.795 0 0 0-.383-1.06l-6.12-2.891L61.36 9.25a.784.784 0 0 0 .365-.372l1.15-2.453a.797.797 0 0 0-.38-1.06L51.392.121a.798.798 0 0 0-1.06.378l-1.217 2.59a.796.796 0 0 0 .381 1.06l5.816 2.747-10.462 5.188a.789.789 0 0 0-.363.372l-1.212 2.578a.8.8 0 0 0 .383 1.056l11.312 5.345c.19.092.41.103.607.033" fill="#467591"/><path fill-rule="evenodd" clip-rule="evenodd" d="M50.328 45.342c.828 1.284 1.11 3.808-.675 4.958-1.45.932-3.829.682-5.682 1.875-1.875 1.21-2.657 3.471-4.121 4.414-2.012 1.298-3.906-.17-4.728-1.439-1.479-2.297.723-6.347 4.922-9.062 4.197-2.707 8.805-3.041 10.284-.746zM38.596 33.608c5.852 4.446 14.783.283 15.134-7.058.019-.447-.712-.734-1.502-.864A11.79 11.79 0 0 1 38.901 31.9c-.409.69-.657 1.435-.305 1.707zM15.072 44.576c5.852 4.447 14.784.284 15.137-7.056.017-.447-.713-.736-1.505-.865A11.789 11.789 0 0 1 15.38 42.87c-.41.69-.658 1.434-.306 1.706" fill="#664E27"/></svg>