<svg width="63" height="61" fill="none" xmlns="http://www.w3.org/2000/svg"><path fill-rule="evenodd" clip-rule="evenodd" d="M0 61l8.973-3.145-6.785-3.165L0 61z" fill="#F7B600"/><path fill-rule="evenodd" clip-rule="evenodd" d="M26.17 35.126l-12.756-12.85-2.056 5.932 14.812 6.918z" fill="#FFDD7D"/><path fill-rule="evenodd" clip-rule="evenodd" d="M11.358 28.208l-2.293 6.625 28.127 13.13 1.273-.446L26.17 35.125l-14.812-6.917z" fill="#F7B600"/><path fill-rule="evenodd" clip-rule="evenodd" d="M6.772 41.449l21.016 9.812 9.408-3.297-28.128-13.13-2.296 6.614z" fill="#FFDD7D"/><path fill-rule="evenodd" clip-rule="evenodd" d="M4.48 48.067l13.9 6.491 9.404-3.297L6.77 41.448 4.48 48.068z" fill="#F7B600"/><path fill-rule="evenodd" clip-rule="evenodd" d="M4.48 48.067l-2.292 6.618 6.785 3.166 9.406-3.297L4.48 48.067z" fill="#FFDD7D"/><path fill-rule="evenodd" clip-rule="evenodd" d="M31.359 29.659c7.078 6.981 10.732 14.696 8.161 17.233-2.571 2.535-10.397-1.068-17.475-8.05-7.077-6.98-10.73-14.697-8.158-17.232 2.57-2.537 10.394 1.066 17.472 8.049z" fill="#493816"/><path fill-rule="evenodd" clip-rule="evenodd" d="M22.553 12.074c-1.711-2.381.146-3.445 2.423-3.019-2.165-2.669-.83-4.519 2.582-3.793 1.066.227-.418 2.033-1.374 1.965 2.869 2.154 1.295 4.428-1.742 3.893 2.686 3.697-1.93 2.786-3.947 2.94-.528 2.768 2.625 5.923 1.573 5.923-2.349 0-6.089-8.73.485-7.91z" fill="#42ADE2"/><path fill-rule="evenodd" clip-rule="evenodd" d="M44.637 17.179c-1.551.7-5.987-6.252-.55-6.31-3.122-2.845-2.72-4.218 1.468-4.3C40.757 1.746 48.34 0 49.14 2.582c.239.773-2.321-.681-3.158.705-.963 1.6 5.906 5.638-1.182 5.4 2.606 2.66 2.764 3.9-1.393 4.347.543.753 2.215 3.7 1.23 4.145" fill="#FF8736"/><path fill-rule="evenodd" clip-rule="evenodd" d="M46.405 33.588L48 32.23s1.507 2.181 2.565 3.01c.813-3.745.596-6.021 4.951-3.423-2.461-6.518 1.595-4.056 5.429-2.29-.222-1.653.034-1.479 1.694-1.947 1.473 5.54-2.485 3.937-5.715 2.114 1.849 5-.086 4.77-4.125 3.06-.07 2.125-.76 4.522-2.03 4.727-1.442.235-4.364-3.895-4.364-3.895" fill="#ED4C5C"/><path fill-rule="evenodd" clip-rule="evenodd" d="M34.633 17.932c-1.936 2.527-4.889 3.939-7.127 6.15-2.328 2.3-3.719 8.632-3.719 8.632s.832-6.603 3.057-9.144c2.015-2.298 4.896-3.972 6.455-6.646 2.789-4.78.299-11.18-3.26-14.829.748-.668 1.74-1.512 2.34-2.092 3.349 4.307 6.326 12.62 2.254 17.932" fill="#C28FEF"/><path fill-rule="evenodd" clip-rule="evenodd" d="M37.865 23.327c-2.775 2-4.683 4.901-6.615 7.666-1.707 2.441-7.04 5.437-7.04 5.437s5.068-3.425 6.573-5.994c1.853-3.166 3.748-6.422 6.688-8.708 5.88-4.572 14.355-4.059 21.005-1.654l-1.161 2.958s-13.847-3.74-19.45.295z" fill="#FF8736"/><path fill-rule="evenodd" clip-rule="evenodd" d="M49.574 22.841c-1.765 2.345-2.672 5.176-4.025 7.752-1.258 2.4-2.92 4.722-5.381 5.995-2.679 1.389-8.738.914-8.738.914s6.027-.071 8.505-1.743c2.529-1.71 3.855-4.6 4.844-7.384 1.853-5.21 4.176-10.909 9.645-13.228l1.1 2.983s-3.01.803-5.95 4.713M1.28 11.85l2.968-2.976 2.968 2.974-2.967 2.975L1.28 11.85z" fill="#42ADE2"/><path fill-rule="evenodd" clip-rule="evenodd" d="M5.424 21.245l2.968-2.975 2.968 2.975-2.968 2.974-2.968-2.974z" fill="#FF8736"/><path fill-rule="evenodd" clip-rule="evenodd" d="M13 7.184l2.967-2.975 2.968 2.974-2.967 2.975L13 7.184z" fill="#ED4C5C"/><path fill-rule="evenodd" clip-rule="evenodd" d="M45.305 42.761l2.968-2.975 2.967 2.975-2.968 2.975-2.967-2.975z" fill="#C28FEF"/><path fill-rule="evenodd" clip-rule="evenodd" d="M38.692 52.966l2.967-2.974 2.968 2.974-2.968 2.975-2.967-2.975z" fill="#ED4C5C"/><path fill-rule="evenodd" clip-rule="evenodd" d="M51.705 55.32l2.968-2.975 2.967 2.975-2.968 2.975-2.967-2.975z" fill="#FF8736"/><path fill-rule="evenodd" clip-rule="evenodd" d="M54.676 41.762l2.968-2.975 2.967 2.975-2.967 2.975-2.968-2.975zM49.721 10.338l2.968-2.975 2.967 2.975-2.967 2.975-2.968-2.975z" fill="#42ADE2"/><path fill-rule="evenodd" clip-rule="evenodd" d="M17.887 28.22l2.968-2.975 2.967 2.975-2.967 2.975-2.968-2.975z" fill="#ED4C5C"/></svg>