<svg width="120" height="79" fill="none" xmlns="http://www.w3.org/2000/svg"><mask id="a" maskUnits="userSpaceOnUse" x="0" y="0" width="120" height="69"><path fill-rule="evenodd" clip-rule="evenodd" d="M0 .191h119.876v68.016H0V.19z" fill="#fff"/></mask><g mask="url(#a)" fill-rule="evenodd" clip-rule="evenodd"><path d="M60.886 32.6c-.468 1.343-1.293 2.829-2.454 4.416-1.178 1.61-2.66 3.318-4.404 5.076a123.574 123.574 0 0 1-5.678 5.358 140.291 140.291 0 0 1-6.246 5.225 240.403 240.403 0 0 1-6.142 4.693 219.614 219.614 0 0 1-5.324 3.816c-.943.652-1.776 1.22-2.492 1.698l.816-2.27c.562-1.563 1.2-3.328 1.915-5.296a6248.35 6248.35 0 0 0 2.302-6.358c.82-2.268 1.664-4.598 2.53-6.987.895-2.469 1.776-4.88 2.62-7.166.834-2.263 1.643-4.48 2.407-6.597 2.419-.447 4.748-.801 6.928-1.054 2.257-.262 4.32-.356 6.131-.28 1.785.077 3.315.328 4.546.748 1.155.394 1.982 1.008 2.456 1.822.498.865.527 1.897.089 3.157zm7.165-1.54c.661-1.88.554-3.514-.323-4.86-.846-1.267-2.163-2.211-3.915-2.806-1.692-.574-3.72-.89-6.031-.94-2.282-.05-4.874.114-7.702.487-2.535.335-5.21.802-7.966 1.392.837-2.333 1.567-4.374 2.189-6.125.643-1.81 1.131-3.184 1.466-4.117 1.07-.38 2.264-.739 3.554-1.067 1.381-.352 2.841-.698 4.34-1.026 1.49-.327 2.998-.643 4.482-.938a116.37 116.37 0 0 0 4.24-.922 59.567 59.567 0 0 0 3.617-.972c1.108-.34 2.024-.718 2.726-1.13a4.444 4.444 0 0 0 1.34-1.248c.365-.51.636-1.064.805-1.646.17-.586.23-1.173.18-1.745-.056-.644-.31-1.176-.756-1.583-.433-.393-1.054-.629-1.85-.7-.761-.07-1.686.085-2.815.468-.77.244-1.752.603-2.919 1.068-1.175.469-2.455 1-3.803 1.578l-4.244 1.82c-1.468.628-2.89 1.234-4.266 1.818a629.14 629.14 0 0 1-3.788 1.594c-1.129.47-2.06.827-2.766 1.06-.46.131-.932.336-1.404.61-.462.269-.916.59-1.347.953a6.609 6.609 0 0 0-1.16 1.272c-.336.483-.561 1-.67 1.54-.067.205-.179.604-.34 1.216a80.77 80.77 0 0 1-.68 2.374 838.707 838.707 0 0 0-2.131 7.247c-2.768.694-5.63 1.477-8.511 2.33a320.291 320.291 0 0 0-8.798 2.74 548.345 548.345 0 0 0-16.09 5.552c-.945.356-1.622.718-2.069 1.109-.592.52-.778 1.01-.554 1.459.276.55 1.028.597 1.57.584.686-.015 1.626-.254 2.875-.728a287.323 287.323 0 0 1 6.229-2.24 263.194 263.194 0 0 1 16.352-5.082 249.759 249.759 0 0 1 7.923-2.047c-.656 2.195-1.335 4.5-2.023 6.868-.8 2.75-1.598 5.473-2.373 8.092-.79 2.675-1.55 5.237-2.28 7.686-.731 2.45-1.385 4.628-1.962 6.536a640.701 640.701 0 0 0-1.393 4.648c-.38 1.289-.51 1.758-.559 1.952a.7.7 0 0 0-.03.068c-.847.564-1.365 1.011-1.62 1.4-.23.347-.298.651-.212.931.071.23.246.413.494.515.163.068.36.101.6.101.305 0 .677-.054 1.131-.163.712-.172 1.577-.493 2.573-.956.54-.252 1.599-.88 3.239-1.922 1.602-1.019 3.542-2.325 5.765-3.883a283.937 283.937 0 0 0 7.281-5.298 207.212 207.212 0 0 0 7.833-6.182 131.044 131.044 0 0 0 7.345-6.555c2.294-2.213 4.26-4.369 5.845-6.407 1.603-2.062 2.732-4.007 3.356-5.78z" fill="#BB242A"/><path d="M119.806 5.792c-.166-.894-.479-1.625-.931-2.176-.5-.606-1.097-.915-1.773-.916h-.003c-.745 0-1.334.512-1.745 1.51l-.233.533-.09.148a230.723 230.723 0 0 1-3.669 5.918 544.685 544.685 0 0 1-4.377 6.734 605.545 605.545 0 0 1-4.833 7.21c-1.677 2.463-3.36 4.933-5.049 7.408-1.78 2.61-3.403 5-4.962 7.305a647.309 647.309 0 0 0-4.595 6.886 446.534 446.534 0 0 0-3.998 6.185 121.016 121.016 0 0 0-1.956 3.184c.074-1.01.153-2.139.24-3.403.158-2.308.322-4.81.487-7.437a1643.708 1643.708 0 0 0 .973-16.766c1.098-2.879 2.168-5.703 3.18-8.395 1.01-2.688 1.91-5.07 2.697-7.148a955.093 955.093 0 0 0 1.923-5.109c.501-1.348.782-2.124.855-2.368.266-.85.28-1.677.04-2.457-.235-.765-.588-1.375-1.05-1.813-.517-.49-1.082-.697-1.678-.617-.653.087-1.124.596-1.401 1.516a94.92 94.92 0 0 1-.456 1.468c-.257.815-.602 1.866-1.055 3.212-.447 1.328-.965 2.878-1.553 4.652l-.633 1.91.04-.716c.074-1.303.132-2.16.18-2.631.088-1.116-.105-1.836-.589-2.202-.341-.258-.912-.486-1.689-.108-.519.252-.992.706-1.407 1.348a3.76 3.76 0 0 0-.595 2.203c.067 1.83.11 3.978.129 6.381.019 2.37.014 4.954-.013 7.68L66.625 65.908l-.002.008c-.142.452-.184.86-.124 1.212.067.393.201.675.409.863a.806.806 0 0 0 .548.216c.169 0 .345-.051.516-.154.291-.175.51-.507.667-1.005.044-.132.243-.677.594-1.62a1847.318 1847.318 0 0 1 3.472-9.277c.787-2.09 1.639-4.337 2.555-6.743.917-2.406 1.87-4.919 2.856-7.537.624-1.653 1.247-3.309 1.87-4.966a723.918 723.918 0 0 1-.113 3.943 375.747 375.747 0 0 1-.636 13c-.132 1.954-.27 3.747-.41 5.312-.062.516-.002.927.186 1.254.26.454.62.602.877.645.325.055.679-.015 1.052-.21.347-.181.666-.488.942-.902l2.62-3.73c1.138-1.62 2.463-3.502 3.975-5.649 1.516-2.15 3.184-4.506 4.96-7.002 1.766-2.482 3.63-5.123 5.543-7.851 1.895-2.704 3.836-5.457 5.768-8.181l3.36-4.744c-2.065 5.757-3.784 11.024-5.122 15.698-1.622 5.662-2.92 10.643-3.856 14.793-.16.64-.204 1.159-.134 1.584.084.513.265.85.556 1.03.134.083.614.315 1.147-.186.265-.249.468-.656.639-1.28a254.788 254.788 0 0 1 2.132-7.312c.71-2.3 1.479-4.609 2.286-6.863a191.433 191.433 0 0 1 2.602-6.848 288.16 288.16 0 0 1 3.042-7.276 446.226 446.226 0 0 1 3.625-8.124c1.317-2.881 2.786-6.049 4.365-9.414.445-.942.584-1.884.414-2.8z" fill="#312B6A"/></g><path fill-rule="evenodd" clip-rule="evenodd" d="M24.784 78.589c.54 0 .943-.115 1.21-.346.268-.23.401-.55.401-.959 0-.417-.132-.73-.396-.942-.264-.211-.666-.317-1.206-.317h-1.441v2.564h1.432zm.009-2.908c.342 0 .642.036.899.107.257.072.47.175.64.31.17.136.297.3.38.494.085.193.127.41.127.654 0 .26-.046.495-.137.703a1.431 1.431 0 0 1-.399.53 1.825 1.825 0 0 1-.644.336 2.983 2.983 0 0 1-.875.118h-1.88v-5.937h3.744v.34h-3.296v2.345h1.44z" fill="#1A1919"/><mask id="b" maskUnits="userSpaceOnUse" x="28" y="72" width="11" height="7"><path fill-rule="evenodd" clip-rule="evenodd" d="M28.202 72.937H38.29v6.05H28.202v-6.05z" fill="#fff"/></mask><g mask="url(#b)" fill-rule="evenodd" clip-rule="evenodd" fill="#1A1919"><path d="M32.956 72.996v5.937h-.448v-4.876a4.4 4.4 0 0 1 .03-.567 3.451 3.451 0 0 1-.244.437l-3.557 4.871a.35.35 0 0 1-.089.095.2.2 0 0 1-.12.04h-.326v-5.937h.448v4.875c0 .09-.001.18-.004.273-.003.092-.01.187-.022.285.038-.084.077-.161.118-.232.04-.072.08-.138.121-.2l3.562-4.867a.373.373 0 0 1 .087-.094.19.19 0 0 1 .118-.04h.326zM34.415 73.537c.229-.196.484-.345.764-.447.28-.102.607-.153.982-.153.296 0 .563.037.8.111.239.074.441.177.608.308.167.132.295.288.386.469.09.18.134.375.134.585a1.294 1.294 0 0 1-.294.835c-.091.112-.199.209-.324.291-.125.083-.26.15-.405.2.189.056.359.131.51.226.15.095.28.206.385.334a1.384 1.384 0 0 1 .329.904c0 .249-.048.483-.144.7a1.62 1.62 0 0 1-.42.571c-.184.163-.41.29-.677.382a2.784 2.784 0 0 1-.914.139c-.224 0-.43-.019-.621-.055a2.697 2.697 0 0 1-.529-.155 2.413 2.413 0 0 1-.45-.243 2.673 2.673 0 0 1-.386-.324l.122-.184a.154.154 0 0 1 .122-.063c.029 0 .065.017.109.05l.161.124c.064.049.14.102.228.16.089.057.194.11.314.159s.257.09.411.124c.154.033.33.05.527.05.273 0 .516-.035.73-.105.213-.07.393-.168.54-.294a1.26 1.26 0 0 0 .335-.447c.077-.172.115-.36.115-.564 0-.182-.034-.352-.102-.51a1.16 1.16 0 0 0-.303-.413 1.457 1.457 0 0 0-.49-.277 2.002 2.002 0 0 0-.66-.1h-.81v-.361h.828c.177 0 .347-.025.51-.076a1.33 1.33 0 0 0 .428-.22 1.014 1.014 0 0 0 .403-.829 1.02 1.02 0 0 0-.4-.824 1.377 1.377 0 0 0-.47-.237 2.154 2.154 0 0 0-.623-.084 2.53 2.53 0 0 0-.834.13 1.529 1.529 0 0 0-.274.121 4.164 4.164 0 0 0-.338.214.185.185 0 0 1-.096.038c-.046 0-.084-.024-.113-.071l-.104-.189z"/></g><path fill-rule="evenodd" clip-rule="evenodd" d="M44.477 72.996v5.937h-.449v-2.845h-3.857v2.845h-.449v-5.937h.449v2.77h3.857v-2.77h.449z" fill="#1A1919"/><mask id="c" maskUnits="userSpaceOnUse" x="46" y="72" width="10" height="7"><path fill-rule="evenodd" clip-rule="evenodd" d="M46.296 72.928h9.605v6.06h-9.605v-6.06z" fill="#fff"/></mask><g mask="url(#c)" fill-rule="evenodd" clip-rule="evenodd" fill="#1A1919"><path d="M49.997 78.576l-.009.357h-3.692v-5.937h3.692v.357h-3.243v2.4h2.7v.348h-2.7v2.475h3.252zM55.653 77.934c.029 0 .053.01.074.03l.174.18c-.128.131-.266.25-.416.355-.15.105-.313.194-.492.268a3.005 3.005 0 0 1-.588.172 3.78 3.78 0 0 1-.703.061c-.426 0-.818-.072-1.173-.216a2.628 2.628 0 0 1-1.511-1.571 3.532 3.532 0 0 1-.211-1.25c0-.451.072-.862.218-1.234a2.708 2.708 0 0 1 1.55-1.58c.365-.147.769-.22 1.21-.22.42 0 .794.063 1.119.189.325.125.621.303.888.532l-.135.19c-.023.033-.06.05-.109.05-.035 0-.091-.031-.17-.093a2.277 2.277 0 0 0-.326-.203 2.655 2.655 0 0 0-1.267-.296c-.372 0-.712.061-1.021.184-.31.124-.575.3-.797.53a2.42 2.42 0 0 0-.52.838c-.125.33-.187.7-.187 1.112 0 .42.063.795.19 1.125.125.33.299.609.52.837.22.228.48.403.781.524.3.122.625.183.973.183.22 0 .417-.014.59-.042a2.19 2.19 0 0 0 .882-.331c.124-.082.248-.177.37-.286a.28.28 0 0 1 .043-.027.1.1 0 0 1 .044-.01z"/></g><path fill-rule="evenodd" clip-rule="evenodd" d="M65.545 72.996v5.937h-.388v-5.06c0-.073.005-.15.013-.23l-2.425 4.149c-.04.073-.098.109-.174.109h-.07c-.075 0-.133-.036-.174-.11l-2.49-4.157c.008.084.013.163.013.239v5.06h-.392v-5.937h.31c.04 0 .072.004.095.012.023.009.046.031.07.068l2.486 4.128c.043.079.08.163.113.252a1.976 1.976 0 0 1 .122-.256l2.416-4.124c.023-.037.047-.06.072-.068a.313.313 0 0 1 .098-.012h.305zM70.682 76.776l-1.254-3a2.91 2.91 0 0 1-.126-.352 2.97 2.97 0 0 1-.056.19c-.02.061-.043.116-.066.167l-1.254 2.995h2.756zm1.363 2.157h-.344a.155.155 0 0 1-.1-.031.209.209 0 0 1-.06-.082l-.724-1.725h-3.026l-.722 1.725a.18.18 0 0 1-.062.08.167.167 0 0 1-.104.033h-.34l2.522-5.937h.44l2.52 5.937zM74.657 76.197c.27 0 .512-.036.727-.109.215-.073.397-.173.547-.302a1.316 1.316 0 0 0 .463-1.028c0-.456-.145-.807-.435-1.053-.29-.246-.724-.37-1.302-.37h-1.145v2.862h1.145zm0-3.201c.723 0 1.268.152 1.635.457.367.305.55.74.55 1.305a1.622 1.622 0 0 1-.588 1.282 2.04 2.04 0 0 1-.687.37c-.27.087-.573.131-.91.131h-1.145v2.392h-.448v-5.937h1.593zM82.638 78.933h-.383a.253.253 0 0 1-.144-.038.486.486 0 0 1-.117-.121l-2.025-2.409c-.04-.05-.08-.094-.12-.132a.514.514 0 0 0-.13-.092.605.605 0 0 0-.164-.053 1.193 1.193 0 0 0-.213-.017h-.797v2.862h-.448v-5.937h.448v2.74h.71c.072 0 .139-.004.198-.013a.757.757 0 0 0 .17-.044.607.607 0 0 0 .154-.09c.05-.04.1-.09.153-.151l1.933-2.308a.383.383 0 0 1 .105-.096.259.259 0 0 1 .139-.038h.361l-2.099 2.513c-.075.095-.155.171-.239.227-.084.056-.181.099-.292.13.13.028.24.075.33.14.088.066.174.156.258.271l2.212 2.656zM87.37 78.576l-.008.357H83.67v-5.937h3.692v.357h-3.244v2.4h2.7v.348h-2.7v2.475h3.253zM92.726 73.361h-2.164v5.572h-.449v-5.572h-2.177v-.365h4.79v.365zM98.516 72.996v5.937h-.448v-4.876a5.873 5.873 0 0 1 .03-.566 3.498 3.498 0 0 1-.243.436L94.297 78.8a.349.349 0 0 1-.089.094.2.2 0 0 1-.12.04h-.326v-5.937h.448v4.876c0 .09-.001.18-.004.272-.003.092-.01.188-.022.285a2.727 2.727 0 0 1 .24-.432l3.561-4.867a.364.364 0 0 1 .087-.094.188.188 0 0 1 .118-.04h.326zM105.091 72.996v5.937h-.449v-2.845h-3.857v2.845h-.449v-5.937h.449v2.77h3.857v-2.77h.449zM110.515 73.34h-3.156v5.593h-.448v-5.937h3.604v.344z" fill="#1A1919"/></svg>