<svg width="120" height="79" viewBox="0 0 120 79" fill="none" xmlns="http://www.w3.org/2000/svg">
<mask id="mask0" mask-type="alpha" maskUnits="userSpaceOnUse" x="0" y="0" width="120" height="69">
<path fill-rule="evenodd" clip-rule="evenodd" d="M0 0.19104H119.876V68.2069H0V0.19104Z" fill="white"/>
</mask>
<g mask="url(#mask0)">
<path fill-rule="evenodd" clip-rule="evenodd" d="M60.886 32.6007C60.4184 33.9434 59.5929 35.429 58.4318 37.0163C57.2539 38.6266 55.7723 40.3341 54.0282 42.0917C52.2769 43.8571 50.3664 45.6599 48.3497 47.4497C46.3328 49.2396 44.2314 50.9976 42.1036 52.6748C39.9655 54.361 37.8992 55.9397 35.962 57.3682C34.0279 58.7946 32.2365 60.0784 30.6382 61.1842C29.6948 61.8363 28.8618 62.4037 28.146 62.8815C28.3843 62.2183 28.6565 61.4618 28.9624 60.612C29.5244 59.0491 30.1624 57.2838 30.8766 55.3159C31.5905 53.3476 32.3582 51.2286 33.1788 48.9585C33.9993 46.6898 34.8427 44.3604 35.7087 41.9709C36.6036 39.5021 37.485 37.0913 38.3288 34.8053C39.1631 32.5423 39.9722 30.3245 40.7355 28.2084C43.1548 27.7612 45.484 27.4065 47.6635 27.1538C49.9208 26.892 51.9837 26.7979 53.7955 26.8744C55.5804 26.9507 57.1097 27.2019 58.341 27.6216C59.4962 28.0161 60.3228 28.6302 60.7969 29.4444C61.2946 30.3086 61.3238 31.341 60.886 32.6007ZM68.0511 31.0599C68.7123 29.1798 68.6049 27.5461 67.7283 26.1994C66.882 24.9331 65.565 23.989 63.8133 23.3938C62.1213 22.8199 60.0923 22.5035 57.7818 22.4533C55.4999 22.4048 52.9078 22.5683 50.0795 22.9409C47.5454 23.2755 44.8701 23.743 42.1137 24.3326C42.9512 22 43.6806 19.959 44.3025 18.2082C44.9456 16.3971 45.4342 15.0244 45.7688 14.0912C46.8387 13.7111 48.0328 13.3522 49.3229 13.0235C50.7043 12.6715 52.1643 12.3263 53.6621 11.9975C55.1533 11.6711 56.6614 11.3555 58.1449 11.0602C59.6282 10.7651 61.0548 10.4552 62.3847 10.1383C63.7114 9.82232 64.9284 9.49503 66.0023 9.16586C67.11 8.82687 68.0261 8.44755 68.7276 8.03687C69.2419 7.73112 69.6929 7.31125 70.0674 6.78834C70.4328 6.27798 70.7037 5.72414 70.8727 5.14209C71.0421 4.55628 71.1026 3.969 71.0526 3.39657C70.9967 2.75349 70.7426 2.22139 70.2967 1.81448C69.8644 1.42136 69.2425 1.1854 68.4477 1.11309C67.6855 1.04412 66.7614 1.19899 65.6318 1.58228C64.8622 1.82597 63.8803 2.18523 62.7133 2.65025C61.5375 3.11902 60.2579 3.64987 58.9101 4.22774L54.6656 6.04725C53.1978 6.67611 51.7761 7.2824 50.4 7.86613C49.0237 8.44985 47.7613 8.98153 46.6123 9.45992C45.4831 9.93037 44.5526 10.2871 43.8462 10.5202C43.3866 10.651 42.9144 10.8562 42.442 11.13C41.9796 11.3988 41.5265 11.7194 41.0953 12.083C40.6525 12.4571 40.2622 12.8851 39.9354 13.3547C39.5989 13.8379 39.3739 14.3556 39.2658 14.8946C39.1984 15.1003 39.0864 15.4994 38.9248 16.1114C38.7585 16.7371 38.5297 17.5357 38.2449 18.4847C37.9551 19.448 37.6201 20.5761 37.2399 21.8694C36.8839 23.0782 36.5086 24.3654 36.1135 25.7312C33.3459 26.4259 30.4844 27.2094 27.6027 28.0619C24.6254 28.9432 21.6656 29.8655 18.8053 30.8029C15.955 31.7375 13.1271 32.6897 10.3999 33.6333C7.70437 34.5662 5.12112 35.481 2.71565 36.3542C1.76994 36.7097 1.09345 37.0721 0.646441 37.4629C0.0542163 37.9831 -0.132404 38.4736 0.0918346 38.9219C0.368402 39.4718 1.11993 39.5188 1.66171 39.5058C2.34767 39.4908 3.28833 39.2525 4.53709 38.7775C6.29401 38.1187 8.38949 37.3651 10.7657 36.5373C13.1504 35.7071 15.7566 34.8482 18.5115 33.9846C21.2589 33.1242 24.1547 32.2734 27.1177 31.4558C29.7692 30.7247 32.4303 30.0373 35.0408 29.4091C34.3854 31.604 33.7061 33.9098 33.0181 36.2773C32.2178 39.0279 31.4196 41.7504 30.6454 44.3687C29.8541 47.0441 29.0942 49.6059 28.3641 52.0551C27.634 54.5048 26.9798 56.6827 26.4027 58.591C25.8038 60.5683 25.3482 62.0886 25.0098 63.2386C24.6296 64.5277 24.4993 64.9971 24.451 65.1909C24.4399 65.2136 24.43 65.2366 24.4218 65.2592C23.5736 65.8229 23.056 66.2705 22.8002 66.6593C22.5716 67.006 22.5026 67.3105 22.5892 67.5903C22.66 67.8202 22.8351 68.0029 23.0829 68.1053C23.2457 68.1726 23.4435 68.2062 23.6833 68.2062C23.9878 68.2062 24.36 68.1517 24.8141 68.0426C25.5255 67.8706 26.391 67.5496 27.3873 67.0871C27.9266 66.8352 28.9858 66.2066 30.6258 65.1654C32.2285 64.1465 34.1681 62.8401 36.3909 61.2825C38.6066 59.729 41.0564 57.9465 43.6722 55.9844C46.2876 54.0222 48.9232 51.9419 51.5054 49.8018C54.0866 47.6635 56.5574 45.458 58.85 43.2468C61.1439 41.0336 63.1103 38.8782 64.6949 36.8405C66.2978 34.778 67.4272 32.8333 68.0511 31.0599Z" fill="#BB242A"/>
<path fill-rule="evenodd" clip-rule="evenodd" d="M119.806 5.79188C119.64 4.89822 119.327 4.16653 118.875 3.61603C118.375 3.00953 117.778 2.70126 117.102 2.70001C117.101 2.70001 117.1 2.70001 117.099 2.70001C116.354 2.70001 115.765 3.21163 115.354 4.20979L115.121 4.74252L115.031 4.89111C113.958 6.68867 112.723 8.67956 111.362 10.809C109.99 12.9556 108.518 15.2213 106.985 17.5432C105.463 19.8507 103.837 22.2761 102.152 24.7523C100.475 27.2159 98.7922 29.6856 97.1031 32.1607C95.3229 34.7715 93.6996 37.1611 92.1413 39.4659C90.5332 41.8441 88.9869 44.161 87.5458 46.3525C86.0991 48.553 84.7539 50.634 83.5476 52.5371C82.8351 53.6602 82.1815 54.7246 81.5922 55.7205C81.6658 54.7108 81.7452 53.5823 81.832 52.3183C81.9901 50.0099 82.1542 47.5078 82.3194 44.881C82.4882 42.1921 82.6584 39.3759 82.8255 36.5101C82.9951 33.5892 83.1522 30.7653 83.2924 28.115C84.3901 25.2363 85.46 22.4122 86.4725 19.7197C87.4825 17.0322 88.3816 14.6497 89.1693 12.5723C89.9927 10.3983 90.6215 8.72721 91.0916 7.46321C91.5934 6.11519 91.8738 5.33878 91.9471 5.09509C92.213 4.24448 92.2262 3.4177 91.9866 2.63773C91.7519 1.87302 91.3986 1.26317 90.9367 0.824701C90.4201 0.335653 89.855 0.128122 89.2594 0.20754C88.6056 0.295108 88.1347 0.803593 87.8577 1.72442C87.8299 1.82035 87.7337 2.13886 87.4023 3.19178C87.1455 4.00727 86.8004 5.0581 86.3473 6.40444C85.9001 7.73198 85.382 9.2823 84.794 11.0556C84.5887 11.6749 84.3775 12.3117 84.1608 12.9667C84.1751 12.7173 84.1887 12.4782 84.2016 12.2498C84.2747 10.9467 84.3329 10.0901 84.3808 9.61899C84.4685 8.50338 84.2758 7.78318 83.792 7.41723C83.4507 7.15933 82.8805 6.9309 82.1031 7.30897C81.5843 7.56123 81.111 8.01475 80.6963 8.65678C80.2758 9.3078 80.0755 10.0485 80.1014 10.86C80.1676 12.6906 80.2109 14.8376 80.23 17.2412C80.2487 19.6119 80.2445 22.195 80.2174 24.9207L66.6252 65.908L66.6225 65.9159C66.4807 66.3682 66.439 66.7759 66.4991 67.1283C66.5662 67.5206 66.7001 67.8031 66.9075 67.9908C67.0659 68.1344 67.2557 68.2069 67.4562 68.2069C67.6248 68.2069 67.8007 68.1559 67.9721 68.0527C68.2634 67.8777 68.4824 67.5465 68.6392 67.0478C68.6829 66.9164 68.8825 66.3711 69.2329 65.4271C69.5853 64.4765 70.055 63.2148 70.6426 61.6426C71.2298 60.0699 71.9172 58.2393 72.7049 56.1502C73.4917 54.0611 74.3437 51.814 75.26 49.4084C76.1769 47.0017 77.1291 44.4893 78.1165 41.8708C78.7398 40.2179 79.3631 38.5625 79.9866 36.9047C79.9522 38.2287 79.9141 39.5468 79.8732 40.8476C79.7994 43.1823 79.7067 45.4672 79.5985 47.6387C79.4905 49.7934 79.369 51.8827 79.2372 53.8485C79.1052 55.8024 78.9667 57.5946 78.8268 59.1595C78.7646 59.6764 78.8253 60.0868 79.0128 60.4143C79.2736 60.8685 79.6332 61.0156 79.8896 61.0591C80.2145 61.1144 80.5688 61.0436 80.9416 60.8492C81.2886 60.668 81.6078 60.361 81.8839 59.947L84.5048 56.2164C85.6418 54.5978 86.967 52.715 88.4795 50.5682C89.9946 48.4182 91.6632 46.0624 93.4386 43.5662C95.2046 41.0842 97.0695 38.4425 98.9815 35.7147C100.877 33.0107 102.818 30.2585 104.75 27.534C105.894 25.9204 107.014 24.3389 108.11 22.79C106.045 28.5472 104.326 33.8141 102.988 38.4881C101.366 44.1499 100.068 49.1309 99.132 53.2811C98.9717 53.9211 98.9279 54.4396 98.9981 54.8645C99.0816 55.378 99.2634 55.7149 99.5542 55.895C99.6883 55.978 100.168 56.2096 100.701 55.7088C100.966 55.4603 101.169 55.0532 101.34 54.4285C102.046 51.8725 102.763 49.4128 103.472 47.1174C104.182 44.8173 104.951 42.5081 105.758 40.2543C106.567 37.9925 107.443 35.6886 108.36 33.4057C109.283 31.1055 110.306 28.6576 111.402 26.13C112.507 23.5817 113.726 20.8483 115.027 18.0057C116.344 15.1247 117.813 11.9574 119.392 8.59241C119.837 7.65005 119.976 6.7079 119.806 5.79188Z" fill="#312B6A"/>
</g>
<path fill-rule="evenodd" clip-rule="evenodd" d="M24.7841 78.5888C25.324 78.5888 25.7273 78.4736 25.9944 78.2427C26.2615 78.0121 26.395 77.6924 26.395 77.284C26.395 76.8673 26.2628 76.5531 25.9988 76.3419C25.7347 76.131 25.3326 76.0252 24.7927 76.0252H23.3517V78.5888H24.7841ZM24.7927 75.6812C25.1353 75.6812 25.435 75.7168 25.6918 75.7882C25.9488 75.8595 26.1621 75.9629 26.3319 76.0986C26.5017 76.2344 26.6287 76.3987 26.7129 76.5918C26.797 76.7847 26.839 77.0029 26.839 77.2464C26.839 77.5064 26.7934 77.7407 26.702 77.949C26.6106 78.1574 26.4778 78.3344 26.3035 78.4799C26.1295 78.6253 25.9145 78.7371 25.6592 78.8153C25.4039 78.8937 25.112 78.933 24.7841 78.933H22.9032V72.9958H26.6476V73.3359H23.3517V75.6812H24.7927Z" fill="#1A1919"/>
<mask id="mask1" mask-type="alpha" maskUnits="userSpaceOnUse" x="28" y="72" width="11" height="7">
<path fill-rule="evenodd" clip-rule="evenodd" d="M28.2019 72.937H38.2897V78.9874H28.2019V72.937Z" fill="white"/>
</mask>
<g mask="url(#mask1)">
<path fill-rule="evenodd" clip-rule="evenodd" d="M32.9563 72.9957V78.9328H32.5078V74.0574C32.5078 73.9678 32.5099 73.8762 32.5143 73.7824C32.5188 73.6888 32.5267 73.5916 32.5383 73.4908C32.4975 73.5776 32.457 73.6566 32.4164 73.728C32.3756 73.7991 32.3351 73.8658 32.2945 73.9272L28.7372 78.7985C28.7141 78.8348 28.6842 78.8666 28.6481 78.8931C28.6117 78.9195 28.5718 78.9328 28.5283 78.9328H28.2019V72.9957H28.6502V77.8714C28.6502 77.961 28.6487 78.0517 28.6458 78.1441C28.643 78.2363 28.6357 78.3314 28.6241 78.4294C28.6617 78.3454 28.701 78.2678 28.7416 78.1966C28.7824 78.1253 28.8229 78.0586 28.8635 77.9972L32.425 73.1299C32.4483 73.0937 32.4774 73.0622 32.512 73.0356C32.5469 73.0091 32.5862 72.9957 32.6297 72.9957H32.9563Z" fill="#1A1919"/>
<path fill-rule="evenodd" clip-rule="evenodd" d="M34.4148 73.537C34.6439 73.3412 34.8986 73.1922 35.1787 73.0902C35.4589 72.9882 35.7861 72.937 36.1606 72.937C36.4567 72.937 36.7236 72.974 36.9617 73.0482C37.1996 73.1224 37.4022 73.225 37.5691 73.3565C37.7359 73.4881 37.8645 73.644 37.9545 73.8246C38.0444 74.005 38.0894 74.2 38.0894 74.4096C38.0894 74.5747 38.0634 74.7273 38.011 74.8671C37.9587 75.0071 37.8868 75.1327 37.7954 75.2445C37.704 75.3568 37.596 75.4537 37.4711 75.5363C37.3463 75.619 37.2114 75.6853 37.0662 75.7357C37.2549 75.7917 37.4247 75.8671 37.5756 75.9622C37.7265 76.0573 37.8551 76.1685 37.961 76.2958C38.0669 76.423 38.1483 76.5629 38.2048 76.7154C38.2613 76.8678 38.2897 77.0295 38.2897 77.2001C38.2897 77.449 38.2418 77.6827 38.1459 77.9006C38.0501 78.1188 37.9102 78.3092 37.7258 78.4714C37.5415 78.6336 37.3158 78.7609 37.0489 78.853C36.7818 78.9456 36.4771 78.9916 36.1345 78.9916C35.9109 78.9916 35.7041 78.9734 35.5139 78.937C35.324 78.9009 35.1476 78.8491 34.985 78.7818C34.8225 78.7147 34.6723 78.6336 34.5344 78.5385C34.3965 78.4434 34.2681 78.3358 34.1492 78.2154L34.2711 78.0308C34.3057 77.9886 34.3465 77.9679 34.393 77.9679C34.422 77.9679 34.4583 77.9847 34.5018 78.0181C34.5453 78.0517 34.5989 78.0929 34.663 78.142C34.7267 78.1909 34.803 78.244 34.8914 78.3013C34.9799 78.3588 35.0846 78.412 35.205 78.4607C35.3254 78.5099 35.4624 78.551 35.6163 78.5847C35.7701 78.6181 35.9458 78.6348 36.1431 78.6348C36.4159 78.6348 36.6591 78.5999 36.8724 78.5299C37.0857 78.4601 37.2658 78.3621 37.4123 78.2363C37.5588 78.1105 37.6708 77.9615 37.7475 77.7895C37.8246 77.6174 37.8631 77.4294 37.8631 77.2252C37.8631 77.0433 37.8288 76.8734 37.7607 76.7154C37.6924 76.5574 37.5916 76.4197 37.4581 76.302C37.3247 76.1846 37.1611 76.0922 36.9682 76.0251C36.7751 75.958 36.5555 75.9244 36.3087 75.9244H35.4988V75.5637H36.326C36.5031 75.5637 36.673 75.5386 36.8356 75.4882C36.9981 75.4376 37.141 75.3643 37.2643 75.2679C37.3877 75.1714 37.4856 75.0537 37.5583 74.9154C37.6306 74.7768 37.667 74.6182 37.667 74.4391C37.667 74.2712 37.6323 74.1174 37.5626 73.9776C37.4928 73.8378 37.3942 73.7168 37.2664 73.6148C37.1387 73.5126 36.9821 73.4334 36.7963 73.3776C36.6105 73.3216 36.4029 73.2938 36.1736 73.2938C35.9967 73.2938 35.8399 73.3063 35.7035 73.3314C35.5669 73.3565 35.4458 73.3874 35.3399 73.4238C35.2338 73.4601 35.1424 73.5007 35.0657 73.5454C34.9885 73.5901 34.9228 73.6309 34.8675 73.6672C34.8124 73.7034 34.7658 73.7343 34.7282 73.7594C34.6905 73.7845 34.6586 73.7972 34.6323 73.7972C34.5859 73.7972 34.5483 73.7734 34.5193 73.7258L34.4148 73.537Z" fill="#1A1919"/>
</g>
<path fill-rule="evenodd" clip-rule="evenodd" d="M44.4765 72.9958V78.933H44.028V76.0883H40.1706V78.933H39.7221V72.9958H40.1706V75.7652H44.028V72.9958H44.4765Z" fill="#1A1919"/>
<mask id="mask2" mask-type="alpha" maskUnits="userSpaceOnUse" x="46" y="72" width="10" height="7">
<path fill-rule="evenodd" clip-rule="evenodd" d="M46.2964 72.9285H55.9009V78.9874H46.2964V72.9285Z" fill="white"/>
</mask>
<g mask="url(#mask2)">
<path fill-rule="evenodd" clip-rule="evenodd" d="M49.9971 78.5763L49.9883 78.9328H46.2964V72.9957H49.9883V73.3525H46.7447V75.7524H49.4442V76.1006H46.7447V78.5763H49.9971Z" fill="#1A1919"/>
<path fill-rule="evenodd" clip-rule="evenodd" d="M55.6528 77.9343C55.6816 77.9343 55.7064 77.9441 55.7268 77.9636L55.9008 78.1441C55.7731 78.2754 55.6346 78.3937 55.4851 78.4986C55.3355 78.6035 55.1716 78.693 54.9932 78.7672C54.8145 78.8411 54.6187 78.8986 54.4054 78.9392C54.192 78.9797 53.9575 79 53.7022 79C53.2755 79 52.8842 78.9281 52.5289 78.7839C52.1733 78.6399 51.8677 78.4357 51.6124 78.1713C51.3568 77.9071 51.1588 77.5874 51.018 77.2126C50.8772 76.8379 50.8068 76.421 50.8068 75.9622C50.8068 75.5119 50.8793 75.1008 51.0245 74.7287C51.1698 74.3565 51.3728 74.037 51.6342 73.7699C51.8952 73.503 52.2088 73.2957 52.5745 73.149C52.9401 73.002 53.3436 72.9285 53.785 72.9285C54.2057 72.9285 54.5787 72.9916 54.9038 73.1176C55.229 73.2432 55.5251 73.4211 55.792 73.6503L55.6571 73.8393C55.6337 73.8727 55.5976 73.8894 55.5482 73.8894C55.5135 73.8894 55.4568 73.8589 55.3784 73.7973C55.3 73.7358 55.1911 73.6679 55.0518 73.5937C54.9127 73.5197 54.7391 73.4516 54.5317 73.3901C54.324 73.3287 54.0752 73.298 53.785 73.298C53.4134 73.298 53.073 73.3594 52.764 73.4825C52.4549 73.6056 52.1892 73.7818 51.9673 74.0111C51.7452 74.2405 51.5716 74.5204 51.4468 74.8504C51.3221 75.1804 51.2597 75.5509 51.2597 75.9622C51.2597 76.3819 51.3228 76.7566 51.4491 77.0866C51.5754 77.4168 51.7488 77.6958 51.9694 77.9239C52.1899 78.1519 52.4505 78.3266 52.751 78.4484C53.0513 78.5701 53.3756 78.6309 53.724 78.6309C53.9445 78.6309 54.1412 78.6167 54.3139 78.5887C54.4865 78.5609 54.6456 78.5189 54.7908 78.4629C54.9358 78.4068 55.0707 78.3385 55.1955 78.2574C55.3204 78.1763 55.4437 78.0812 55.5656 77.9719C55.5801 77.9611 55.5946 77.9519 55.6091 77.9448C55.6236 77.9379 55.6381 77.9343 55.6528 77.9343Z" fill="#1A1919"/>
</g>
<path fill-rule="evenodd" clip-rule="evenodd" d="M65.5446 72.9958V78.933H65.1573V73.8728C65.1573 73.8001 65.1617 73.7232 65.1703 73.6421L62.7453 77.7917C62.7045 77.8646 62.6465 77.9007 62.5711 77.9007H62.5015C62.4259 77.9007 62.3679 77.8646 62.3271 77.7917L59.8367 73.6337C59.8455 73.7175 59.8497 73.7973 59.8497 73.8728V78.933H59.458V72.9958H59.7671C59.8077 72.9958 59.8397 73 59.863 73.0084C59.8861 73.0167 59.9094 73.0393 59.9325 73.0757L62.4185 77.2042C62.4622 77.2825 62.4998 77.3666 62.532 77.4562C62.5492 77.4113 62.5681 77.3674 62.5885 77.3239C62.6087 77.2807 62.6305 77.2393 62.6539 77.2002L65.0703 73.0757C65.0934 73.0393 65.1173 73.0167 65.1419 73.0084C65.1667 73 65.1993 72.9958 65.2399 72.9958H65.5446Z" fill="#1A1919"/>
<path fill-rule="evenodd" clip-rule="evenodd" d="M70.6823 76.7764L69.4283 73.7762C69.3848 73.6784 69.3428 73.561 69.3022 73.4239C69.2846 73.491 69.2659 73.5547 69.2457 73.6149C69.2251 73.6751 69.2034 73.73 69.1803 73.7806L67.9263 76.7764H70.6823ZM72.045 78.933H71.701C71.6604 78.933 71.6272 78.9225 71.6011 78.9016C71.5749 78.8805 71.5545 78.8531 71.5402 78.8197L70.8172 77.0953H67.7914L67.0685 78.8197C67.0569 78.8504 67.0367 78.877 67.0075 78.8995C66.9785 78.9217 66.9438 78.933 66.9031 78.933H66.5637L69.0845 72.9958H69.5242L72.045 78.933Z" fill="#1A1919"/>
<path fill-rule="evenodd" clip-rule="evenodd" d="M74.6573 76.1972C74.9273 76.1972 75.1694 76.1609 75.3844 76.0883C75.5992 76.0154 75.7812 75.9149 75.9308 75.7859C76.0802 75.6574 76.1948 75.5059 76.2748 75.3309C76.3545 75.1562 76.3944 74.9652 76.3944 74.7581C76.3944 74.3023 76.2494 73.9512 75.959 73.705C75.6687 73.459 75.235 73.3359 74.6573 73.3359H73.5123V76.1972H74.6573ZM74.6573 72.9958C75.38 72.9958 75.9249 73.1482 76.2921 73.4531C76.6592 73.7581 76.8429 74.193 76.8429 74.7581C76.8429 75.0183 76.792 75.2574 76.6905 75.4756C76.5888 75.6938 76.4438 75.8819 76.2551 76.0399C76.0666 76.1981 75.8371 76.3212 75.5672 76.4092C75.2974 76.4973 74.9939 76.5414 74.6573 76.5414H73.5123V78.933H73.0638V72.9958H74.6573Z" fill="#1A1919"/>
<path fill-rule="evenodd" clip-rule="evenodd" d="M82.6379 78.933H82.2548C82.1968 78.933 82.1487 78.9202 82.1113 78.8951C82.0735 78.8701 82.0342 78.8295 81.9936 78.7735L79.9689 76.3651C79.9284 76.3149 79.8885 76.2708 79.8494 76.233C79.8101 76.1951 79.7666 76.1644 79.7186 76.1408C79.6707 76.1168 79.6163 76.0994 79.5554 76.0883C79.4944 76.0771 79.4234 76.0714 79.342 76.0714H78.5453V78.933H78.0969V72.9958H78.5453V75.7358H79.255C79.3273 75.7358 79.3935 75.7316 79.453 75.7232C79.5125 75.7149 79.5692 75.7 79.623 75.6791C79.6766 75.658 79.7281 75.6279 79.7775 75.5888C79.8267 75.5496 79.8777 75.4994 79.9299 75.4377L81.8629 73.13C81.8921 73.0909 81.9268 73.059 81.9675 73.0335C82.0079 73.0084 82.0546 72.9958 82.1067 72.9958H82.4681L80.3695 75.5092C80.2941 75.6043 80.2142 75.68 80.1301 75.7358C80.0459 75.7918 79.9488 75.835 79.8384 75.8658C79.9689 75.8938 80.0786 75.9408 80.1671 76.0064C80.2556 76.072 80.342 76.1623 80.4262 76.2771L82.6379 78.933Z" fill="#1A1919"/>
<path fill-rule="evenodd" clip-rule="evenodd" d="M87.3705 78.5764L87.3619 78.933H83.6699V72.9958H87.3619V73.3526H84.1181V75.7525H86.8176V76.1007H84.1181V78.5764H87.3705Z" fill="#1A1919"/>
<path fill-rule="evenodd" clip-rule="evenodd" d="M92.7256 73.361H90.562V78.933H90.1133V73.361H87.9363V72.9958H92.7256V73.361Z" fill="#1A1919"/>
<path fill-rule="evenodd" clip-rule="evenodd" d="M98.5164 72.9958V78.933H98.0679V74.0575C98.0679 73.9679 98.0703 73.8763 98.0747 73.7825C98.0789 73.6889 98.0869 73.5917 98.0984 73.491C98.0576 73.5777 98.0171 73.6567 97.9765 73.7282C97.9358 73.7992 97.8952 73.8659 97.8546 73.9273L94.2975 78.7986C94.2744 78.835 94.2445 78.8667 94.2082 78.8933C94.1718 78.9196 94.1321 78.933 94.0886 78.933H93.762V72.9958H94.2105V77.8715C94.2105 77.9611 94.209 78.0518 94.2061 78.1442C94.2031 78.2364 94.196 78.3315 94.1844 78.4295C94.2221 78.3455 94.2611 78.268 94.3017 78.1967C94.3425 78.1254 94.383 78.0587 94.4236 77.9973L97.9854 73.13C98.0085 73.0939 98.0375 73.0623 98.0724 73.0358C98.1072 73.0092 98.1463 72.9958 98.1898 72.9958H98.5164Z" fill="#1A1919"/>
<path fill-rule="evenodd" clip-rule="evenodd" d="M105.091 72.9958V78.933H104.642V76.0883H100.785V78.933H100.336V72.9958H100.785V75.7652H104.642V72.9958H105.091Z" fill="#1A1919"/>
<path fill-rule="evenodd" clip-rule="evenodd" d="M110.515 73.3399H107.359V78.933H106.911V72.9958H110.515V73.3399Z" fill="#1A1919"/>
</svg>
